<svg width="1280" height="720" viewBox="0 0 1280 720" fill="none" xmlns="http://www.w3.org/2000/svg">
  <rect width="1280" height="720" fill="#F8FAFC"/>
  <path d="M0 548L176 492L352 534L548 426L742 494L934 382L1280 470V720H0V548Z" fill="#E5F7EE"/>
  <path d="M112 532C250 476 376 496 494 548C628 606 764 578 898 496C1016 424 1130 396 1234 414" stroke="#A7D8B8" stroke-width="12" stroke-linecap="round" stroke-dasharray="24 22"/>
  <rect x="322" y="166" width="636" height="116" rx="30" fill="#123A5A"/>
  <rect x="322" y="302" width="636" height="116" rx="30" fill="#0B2E4A"/>
  <rect x="322" y="438" width="636" height="116" rx="30" fill="#123A5A"/>
  <circle cx="390" cy="224" r="18" fill="#22C55E"/>
  <circle cx="390" cy="360" r="18" fill="#22C55E"/>
  <circle cx="390" cy="496" r="18" fill="#22C55E"/>
  <rect x="442" y="205" width="246" height="18" rx="9" fill="#E0F2FE"/>
  <rect x="442" y="241" width="382" height="14" rx="7" fill="#6EA8C6"/>
  <rect x="442" y="341" width="310" height="18" rx="9" fill="#E0F2FE"/>
  <rect x="442" y="377" width="430" height="14" rx="7" fill="#6EA8C6"/>
  <rect x="442" y="477" width="276" height="18" rx="9" fill="#E0F2FE"/>
  <rect x="442" y="513" width="396" height="14" rx="7" fill="#6EA8C6"/>
  <path d="M874 204H908V244H874V204Z" fill="#22C55E"/>
  <path d="M820 204H854V244H820V204Z" fill="#FACC15"/>
  <path d="M874 340H908V380H874V340Z" fill="#22C55E"/>
  <path d="M820 340H854V380H820V340Z" fill="#FACC15"/>
  <path d="M874 476H908V516H874V476Z" fill="#22C55E"/>
  <path d="M820 476H854V516H820V476Z" fill="#FACC15"/>
  <circle cx="1012" cy="212" r="76" fill="#22C55E"/>
  <path d="M1012 162C984 162 962 184 962 212C962 240 984 262 1012 262C1040 262 1062 240 1062 212C1062 184 1040 162 1012 162ZM1012 188C1025 188 1036 199 1036 212C1036 225 1025 236 1012 236C999 236 988 225 988 212C988 199 999 188 1012 188Z" fill="white"/>
  <path d="M1012 288V354C1012 384 988 408 958 408" stroke="#22C55E" stroke-width="12" stroke-linecap="round"/>
  <path d="M1012 408V438" stroke="#22C55E" stroke-width="12" stroke-linecap="round"/>
  <path d="M226 300C226 246 270 202 324 202" stroke="#22C55E" stroke-width="12" stroke-linecap="round" stroke-dasharray="18 22"/>
  <path d="M226 300V452C226 486 254 514 288 514H322" stroke="#22C55E" stroke-width="12" stroke-linecap="round" stroke-dasharray="18 22"/>
  <circle cx="226" cy="300" r="46" fill="#0B2E4A"/>
  <path d="M202 300L220 318L252 282" stroke="#FFFFFF" stroke-width="12" stroke-linecap="round" stroke-linejoin="round"/>
</svg>
